<?xml version="1.0" encoding="UTF-8"?>
<svg version="1.1" xmlns="http://www.w3.org/2000/svg" width="512" height="512">
<path d="M0 0 C0.85207031 0.32742187 1.70414062 0.65484375 2.58203125 0.9921875 C16.84636987 7.14719345 26.40698003 19.98075232 32.703125 33.65625 C35.15948259 39.98950934 36.24961117 45.63266724 36.25726891 52.413661 C36.26077498 53.11798371 36.26428105 53.82230641 36.26789337 54.54797223 C36.27715913 56.89592789 36.27229665 59.24363287 36.26742554 61.59159851 C36.27116424 63.29690734 36.27576664 65.00221446 36.28115618 66.70751888 C36.29337451 71.38461738 36.29312709 76.06164429 36.29076743 80.73875511 C36.29035897 85.78663792 36.30140127 90.83449786 36.31088257 95.88237 C36.32748736 105.76904059 36.33299189 115.65568733 36.33410732 125.5423707 C36.33505809 133.58030658 36.33916979 141.61823459 36.34550858 149.65616798 C36.36311989 172.45278993 36.37234767 195.24939305 36.37084763 218.04602184 C36.37076772 219.27469938 36.3706878 220.50337692 36.37060547 221.76928711 C36.37052371 222.99946758 36.37044195 224.22964804 36.37035771 225.49710671 C36.36954493 245.43061583 36.38868073 265.36404937 36.4168822 285.29753663 C36.44562087 305.77255275 36.45942194 326.24753202 36.45769465 346.72256881 C36.45703107 358.21471811 36.46250939 369.70678818 36.48405075 381.1989193 C36.50227549 390.98427511 36.50659924 400.76951578 36.4930319 410.55488124 C36.48650871 415.54485956 36.48636167 420.53461706 36.5037384 425.52457428 C36.51950283 430.09869889 36.51657113 434.67242821 36.49917014 439.24654339 C36.49610765 440.89524783 36.49970413 442.54398202 36.51089029 444.19265135 C36.62516431 462.2400114 31.98190278 477.42460473 19.33984375 490.71875 C6.19052662 503.5387854 -8.60385585 508.4225233 -26.63208008 508.36572266 C-43.53687097 508.05869571 -57.29044452 501.01031461 -69 489 C-78.48532933 478.78068686 -84.24148238 465.565447 -84.25726891 451.586339 C-84.26077498 450.88201629 -84.26428105 450.17769359 -84.26789337 449.45202777 C-84.27715913 447.10407211 -84.27229665 444.75636713 -84.26742554 442.40840149 C-84.27116424 440.70309266 -84.27576664 438.99778554 -84.28115618 437.29248112 C-84.29337451 432.61538262 -84.29312709 427.93835571 -84.29076743 423.26124489 C-84.29035897 418.21336208 -84.30140127 413.16550214 -84.31088257 408.11763 C-84.32748736 398.23095941 -84.33299189 388.34431267 -84.33410732 378.4576293 C-84.33505809 370.41969342 -84.33916979 362.38176541 -84.34550858 354.34383202 C-84.36311989 331.54721007 -84.37234767 308.75060695 -84.37084763 285.95397816 C-84.37076772 284.72530062 -84.3706878 283.49662308 -84.37060547 282.23071289 C-84.37052371 281.00053242 -84.37044195 279.77035196 -84.37035771 278.50289329 C-84.36954493 258.56938417 -84.38868073 238.63595063 -84.4168822 218.70246337 C-84.44562087 198.22744725 -84.45942194 177.75246798 -84.45769465 157.27743119 C-84.45703107 145.78528189 -84.46250939 134.29321182 -84.48405075 122.8010807 C-84.50227549 113.01572489 -84.50659924 103.23048422 -84.4930319 93.44511876 C-84.48650871 88.45514044 -84.48636167 83.46538294 -84.5037384 78.47542572 C-84.51950283 73.90130111 -84.51657113 69.32757179 -84.49917014 64.75345661 C-84.49610765 63.10475217 -84.49970413 61.45601798 -84.51089029 59.80734865 C-84.62516431 41.7599886 -79.98190278 26.57539527 -67.33984375 13.28125 C-49.65507115 -3.96066519 -23.00812275 -9.91220124 0 0 Z " fill="#40A5EE" transform="translate(280,4)"/>
<path d="M0 0 C2.47983433 2.17542353 4.80971549 4.42528609 7.109375 6.7890625 C7.65851563 7.30597656 8.20765625 7.82289063 8.7734375 8.35546875 C12.55697648 12.23005546 14.91020861 16.88626173 17.359375 21.6640625 C17.87201904 22.65418335 17.87201904 22.65418335 18.39501953 23.66430664 C22.43583802 31.87781885 23.40795578 39.8535528 23.37680054 48.92643738 C23.38133165 49.9083854 23.38586276 50.89033342 23.39053118 51.90203744 C23.40312841 55.17196363 23.40155782 58.44172225 23.39990234 61.71166992 C23.40589054 64.06463839 23.41269676 66.4176049 23.42025757 68.77056885 C23.43789593 75.14888221 23.44261207 81.52714189 23.44388914 87.90547729 C23.4455518 92.56518779 23.4513554 97.22488641 23.4575621 101.88459272 C23.47415715 114.4265468 23.48164851 126.96847255 23.48022263 139.51043721 C23.48014272 140.22153639 23.4800628 140.93263557 23.47998047 141.6652832 C23.47989871 142.3772595 23.47981695 143.0892358 23.47973271 143.82278714 C23.4789204 155.35232973 23.4980476 166.88174149 23.5262572 178.41124626 C23.55505224 190.27447826 23.56879384 202.1376466 23.56706965 214.00091439 C23.56640798 220.65122697 23.57219591 227.30142158 23.59342575 233.95171165 C23.61286056 240.21038297 23.61289654 246.46876572 23.59839249 252.72744751 C23.59630975 255.01624793 23.6009731 257.30506666 23.6131134 259.59383583 C23.71927109 281.0049467 20.5947214 298.17594258 5.04296875 314.0546875 C-7.4348881 326.113713 -22.61802177 330.20799835 -39.45019531 330.15478516 C-57.00473142 329.83619634 -69.50678825 322.93599107 -81.890625 310.7890625 C-82.45652344 310.24765625 -83.02242187 309.70625 -83.60546875 309.1484375 C-98.4846396 293.51938802 -98.33927985 272.17259367 -98.26293945 252.0715332 C-98.26537194 249.81295606 -98.26909568 247.55438001 -98.27400208 245.29580688 C-98.28335041 239.20305018 -98.27403766 233.11045583 -98.26066995 227.01771188 C-98.24929325 220.62119816 -98.25346764 214.22469171 -98.25541687 207.82817078 C-98.25629769 197.09301522 -98.24533405 186.35793795 -98.22680664 175.62280273 C-98.20779369 164.60325203 -98.20072397 153.58377492 -98.20629883 142.56420898 C-98.2130188 129.24197448 -98.20969116 115.91978909 -98.19719505 102.59755516 C-98.19256487 97.52489811 -98.19166833 92.45226101 -98.1937809 87.37960243 C-98.19567146 81.40325907 -98.187501 75.42700941 -98.1717205 69.45068741 C-98.16749675 67.26425375 -98.16661417 65.07781054 -98.16941071 62.89137459 C-98.19292153 41.21342281 -96.17940632 21.73024148 -80.640625 5.0390625 C-58.53460178 -15.54070967 -24.29986353 -18.58611184 0 0 Z " fill="#00518C" transform="translate(129.890625,182.2109375)"/>
<path d="M0 0 C14.23000282 11.44781393 21.89164749 25.69658821 24.32470703 43.76318359 C24.60440435 48.39513644 24.62892476 53.01429292 24.62548828 57.65380859 C24.62977341 58.95662781 24.63405853 60.25944702 24.63847351 61.60174561 C24.64588003 64.34489035 24.64568622 67.08790629 24.64038086 69.83105469 C24.63460553 73.30121487 24.65149718 76.77083791 24.67472553 80.24090958 C24.69323282 83.60772863 24.68927279 86.97443938 24.68798828 90.34130859 C24.69719803 91.56368225 24.70640778 92.78605591 24.71589661 94.04547119 C24.62082006 112.12769379 20.48826703 128.29622625 7.56689453 141.58740234 C6.82697266 142.30541016 6.08705078 143.02341797 5.32470703 143.76318359 C4.68791016 144.40900391 4.05111328 145.05482422 3.39501953 145.72021484 C-1.918369 150.78005994 -7.9555074 153.90922061 -14.67529297 156.76318359 C-15.88378906 157.27751953 -15.88378906 157.27751953 -17.11669922 157.80224609 C-30.39380969 162.36292288 -47.97292631 161.40671418 -60.67529297 155.76318359 C-61.60083984 155.36228516 -62.52638672 154.96138672 -63.47998047 154.54833984 C-79.22277392 146.85533171 -88.74821687 133.83152778 -94.72998047 117.70849609 C-96.33572221 112.70548257 -96.81193104 108.18747062 -96.86816406 102.93188477 C-96.87634155 102.26435181 -96.88451904 101.59681885 -96.89294434 100.90905762 C-96.91767014 98.70809787 -96.93429189 96.50720264 -96.94873047 94.30615234 C-96.95405415 93.54739618 -96.95937782 92.78864002 -96.96486282 92.00689125 C-96.99155408 87.98141112 -97.01093155 83.95596139 -97.02539062 79.93041992 C-97.03865376 76.630003 -97.06636865 73.33021556 -97.10742188 70.0300293 C-97.15731983 66.01708017 -97.18158133 62.00469529 -97.18861771 57.99144936 C-97.19524296 56.47788634 -97.21023007 54.9643315 -97.23450851 53.45094872 C-97.46918298 37.9219796 -94.1987918 24.39217118 -84.67529297 11.76318359 C-84.16482422 11.05935547 -83.65435547 10.35552734 -83.12841797 9.63037109 C-63.5997988 -15.0220937 -24.79587019 -18.3060155 0 0 Z " fill="#0076CC" transform="translate(455.67529296875,352.23681640625)"/>
</svg>
